<?xml version="1.0" encoding="UTF-8" standalone="no"?>
<!-- Generator: Adobe Illustrator 24.1.0, SVG Export Plug-In . SVG Version: 6.00 Build 0)  -->

<svg
   xmlns:dc="http://purl.org/dc/elements/1.1/"
   xmlns:cc="http://creativecommons.org/ns#"
   xmlns:rdf="http://www.w3.org/1999/02/22-rdf-syntax-ns#"
   xmlns:svg="http://www.w3.org/2000/svg"
   xmlns="http://www.w3.org/2000/svg"
   xmlns:sodipodi="http://sodipodi.sourceforge.net/DTD/sodipodi-0.dtd"
   xmlns:inkscape="http://www.inkscape.org/namespaces/inkscape"
   version="1.1"
   id="Layer_1"
   x="0px"
   y="0px"
   viewBox="0 0 75 75"
   style="enable-background:new 0 0 75 75;"
   xml:space="preserve"
   sodipodi:docname="icon-eye.svg"
   inkscape:version="0.92.3 (2405546, 2018-03-11)"><metadata
   id="metadata13"><rdf:RDF><cc:Work
       rdf:about=""><dc:format>image/svg+xml</dc:format><dc:type
         rdf:resource="http://purl.org/dc/dcmitype/StillImage" /></cc:Work></rdf:RDF></metadata><defs
   id="defs11" /><sodipodi:namedview
   pagecolor="#ffffff"
   bordercolor="#666666"
   borderopacity="1"
   objecttolerance="10"
   gridtolerance="10"
   guidetolerance="10"
   inkscape:pageopacity="0"
   inkscape:pageshadow="2"
   inkscape:window-width="1920"
   inkscape:window-height="1017"
   id="namedview9"
   showgrid="false"
   inkscape:zoom="3.1466667"
   inkscape:cx="37.5"
   inkscape:cy="37.5"
   inkscape:window-x="-8"
   inkscape:window-y="-8"
   inkscape:window-maximized="1"
   inkscape:current-layer="Layer_1" />
<g
   id="g6"
   style="fill:#ed1556;fill-opacity:1">
	<path
   d="M71.01,37.75C66.13,24.21,53.5,14.98,39.23,14.3c-0.56-0.04-1.12-0.07-1.69-0.07c-0.57,0-1.13,0.03-1.69,0.07   C21.58,14.98,8.94,24.21,4.07,37.75l-0.12,0.34l0.12,0.34C8.95,51.97,21.58,61.2,35.85,61.88c0.56,0.04,1.12,0.07,1.69,0.07   s1.13-0.03,1.69-0.07c14.27-0.68,26.91-9.92,31.78-23.45l0.12-0.34L71.01,37.75z M39.07,16.29c11.34,0.79,20.33,10.27,20.33,21.8   c0,11.54-8.99,21.01-20.33,21.8c-0.51,0.02-1.02,0.06-1.54,0.06c-0.51,0-1.02-0.04-1.53-0.06c-11.34-0.79-20.33-10.27-20.33-21.8   c0-11.53,8.99-21.01,20.33-21.8c0.51-0.02,1.02-0.06,1.53-0.06S38.56,16.27,39.07,16.29z M6.08,38.09   c2.91-7.82,8.59-14.08,15.67-17.87c-4.95,4.37-8.07,10.76-8.07,17.87s3.13,13.5,8.07,17.87C14.67,52.17,8.99,45.91,6.08,38.09z    M53.33,55.96c4.95-4.37,8.07-10.76,8.07-17.87s-3.13-13.5-8.07-17.87C60.41,24.01,66.09,30.27,69,38.09   C66.09,45.91,60.41,52.17,53.33,55.96z"
   id="path2"
   style="fill:#ed1556;fill-opacity:1" />
	<path
   d="M25.54,38.09c0,6.62,5.38,12,12,12s12-5.38,12-12c0-6.62-5.38-12-12-12S25.54,31.47,25.54,38.09z M47.54,38.09   c0,5.51-4.49,10-10,10c-5.51,0-10-4.48-10-10c0-5.51,4.48-10,10-10C43.06,28.09,47.54,32.57,47.54,38.09z"
   id="path4"
   style="fill:#ed1556;fill-opacity:1" />
</g>
</svg>